<svg xmlns="http://www.w3.org/2000/svg" width="92" height="56" fill="none"><path fill="#3758F9" d="M10.613 20.43a8.912 8.912 0 0 1-.638-.198l-.242-.066c.03-.073.014-.14-.044-.198-.044-.059-.147-.095-.308-.11a3.641 3.641 0 0 1-.682-.616 6.25 6.25 0 0 1-.616-.814 5.552 5.552 0 0 1-.352-.616c-.103-.22-.096-.352.022-.396.117-.059.256-.125.418-.198a1.87 1.87 0 0 1 .506-.264c.19-.059.344.037.462.286.19.337.484.623.88.858.41.235.872.374 1.386.418a3.348 3.348 0 0 0 1.584-.264c.352-.161.542-.381.572-.66.03-.293-.08-.63-.33-1.012a.67.67 0 0 0-.198-.286 3.145 3.145 0 0 0-.352-.286 11.22 11.22 0 0 1-.638-.572l-.616-.286-.572-.286a6.418 6.418 0 0 1-.792-.484 7.584 7.584 0 0 1-.814-.704 3.912 3.912 0 0 1-.572-.748c-.235-.22-.382-.52-.44-.902a4.018 4.018 0 0 1 .022-1.254c.088-.44.227-.836.418-1.188.088-.205.25-.47.484-.792.234-.337.498-.682.792-1.034.293-.352.572-.667.836-.946.278-.293.498-.491.66-.594.117-.117.242-.235.374-.352l.198-.198c.014-.073.036-.11.066-.11h.066c.073-.044.234-.117.484-.22.25-.103.52-.293.814-.572.982-.47 1.818-.785 2.508-.946.69-.176 1.232-.264 1.628-.264a2.45 2.45 0 0 1 1.078.308c.352.176.652.403.902.682.264.279.418.594.462.946.102.352.051.777-.154 1.276-.19.484-.462.946-.814 1.386-.338.425-.69.74-1.056.946-.41.176-.763.198-1.056.066-.279-.132-.41-.337-.396-.616 0-.117.036-.257.11-.418.088-.161.315-.447.682-.858.47-.69.718-1.18.748-1.474.03-.293-.103-.462-.396-.506-.088-.03-.257-.022-.506.022-.25.044-.52.103-.814.176a6.824 6.824 0 0 0-.748.198c-.206.073-.308.125-.308.154v.066c0 .044-.03.059-.088.044-.03 0-.132.051-.308.154a18.059 18.059 0 0 0-1.298.814c-.22.147-.41.279-.572.396-.162.117-.25.19-.264.22-.03.161-.198.308-.506.44-.294.176-.55.425-.77.748a22.4 22.4 0 0 0-.77 1.232c-.25.337-.426.704-.528 1.1-.103.381-.103.69 0 .924.073.235.271.47.594.704.337.22.792.499 1.364.836.498.279.968.572 1.408.88.44.308.814.609 1.122.902.308.279.506.513.594.704.176.25.278.535.308.858.044.323.044.638 0 .946-.03.293-.074.535-.132.726a3.203 3.203 0 0 1-.484.748c-.206.264-.396.389-.572.374a1.303 1.303 0 0 0-.374.154c-.074.059-.162.11-.264.154-.103.059-.345.125-.726.198a9.82 9.82 0 0 1-1.254.198c-.455.059-.85.08-1.188.066Zm9.232-1.408c-.161-.03-.337-.125-.528-.286a4.895 4.895 0 0 1-.528-.572 2.209 2.209 0 0 1-.286-.55c0-.03-.022-.066-.066-.11l-.044-.066c-.059-.044-.095-.235-.11-.572 0-.352.022-.74.066-1.166a8.41 8.41 0 0 1 .154-1.012c.073-.235.183-.55.33-.946.147-.41.271-.777.374-1.1l.594-1.276-.88-.242a.528.528 0 0 1-.264-.176.428.428 0 0 1-.088-.22c0-.117.066-.286.198-.506.132-.22.227-.33.286-.33.073.015.205.022.396.022.205 0 .403-.007.594-.022.19-.015.308-.03.352-.044a1.15 1.15 0 0 0 .176-.11.547.547 0 0 0 .132-.242 2.77 2.77 0 0 1 .198-.374c.059-.088.14-.22.242-.396a7.32 7.32 0 0 0 .242-.484c.073-.132.183-.315.33-.55a5.65 5.65 0 0 0 .242-.374c.088-.147.198-.271.33-.374.132-.117.345-.198.638-.242.308-.059.572.007.792.198a.833.833 0 0 1 .198.418c.015.132-.044.3-.176.506a3.53 3.53 0 0 1-.418.682c-.147.19-.286.41-.418.66-.235.323-.279.506-.132.55.147.044.557.015 1.232-.088.425-.073.733-.03.924.132.19.161.3.367.33.616.044.352.007.565-.11.638-.117.073-.455.11-1.012.11a8.743 8.743 0 0 1-.902.11h-.55c-.19.015-.315.022-.374.022s-.147.015-.264.044a.472.472 0 0 0-.264.154 1.816 1.816 0 0 0-.154.264c-.059.059-.147.213-.264.462a9.27 9.27 0 0 1-.44.814 26.35 26.35 0 0 0-.528 1.782c-.132.557-.25 1.115-.352 1.672-.044.279-.037.484.022.616.073.117.264.19.572.22.161.015.396.015.704 0 .308-.03.565-.073.77-.132.161-.073.33-.147.506-.22a7.19 7.19 0 0 0 .484-.264l.396-.22.198-.132c.073-.117.176-.095.308.066.147.147.25.308.308.484 0 .176-.037.389-.11.638-.073.235-.345.484-.814.748-.66.41-1.32.66-1.98.748-.66.088-1.18.095-1.562.022Zm9.967-.462c-.44.25-.91.396-1.408.44a3.25 3.25 0 0 1-1.364-.198 2.496 2.496 0 0 1-1.034-.77c-.146-.19-.286-.491-.418-.902-.132-.425-.154-.997-.066-1.716a6.94 6.94 0 0 1 .616-2.046 7.676 7.676 0 0 1 1.232-1.826c.484-.528 1.012-.887 1.584-1.078.206-.073.41-.125.616-.154.22-.044.506-.051.858-.022.338.044.638.132.902.264.264.117.455.25.572.396.235.235.389.462.462.682.074.22.103.433.088.638-.073.47-.286.975-.638 1.518a3.051 3.051 0 0 1-1.43 1.21 2.97 2.97 0 0 1-.88.198c-.337.03-.8-.015-1.386-.132-.352-.073-.586-.037-.704.11-.102.147-.146.433-.132.858.03.264.088.499.176.704.103.19.286.323.55.396.338.059.58.066.726.022.147-.059.33-.14.55-.242.118-.073.228-.154.33-.242.118-.088.228-.176.33-.264a3.58 3.58 0 0 1 .286-.198.519.519 0 0 1 .22-.11c.074-.015.147-.022.22-.022.162.015.316.103.462.264.147.161.242.315.286.462 0 .117-.073.286-.22.506a4.615 4.615 0 0 1-.594.66 4.6 4.6 0 0 1-.792.594Zm-.286-4.906c.103-.044.25-.147.44-.308a4.49 4.49 0 0 0 .55-.506c.162-.19.242-.337.242-.44 0-.161-.11-.3-.33-.418-.205-.117-.476-.14-.814-.066-.117.03-.256.11-.418.242a4.7 4.7 0 0 0-.484.462 4.19 4.19 0 0 0-.418.484 2.19 2.19 0 0 0-.242.352c.059.073.176.132.352.176.176.044.367.066.572.066.22 0 .404-.015.55-.044Zm3.19 9.416c-.206.059-.418.007-.638-.154a1.614 1.614 0 0 1-.484-.66 1.233 1.233 0 0 1 0-.858c.03-.088.073-.235.132-.44.059-.19.095-.36.11-.506a4.52 4.52 0 0 1 .132-.528c.073-.235.154-.47.242-.704.102-.235.183-.403.242-.506.088-.147.147-.315.176-.506a2.11 2.11 0 0 0 .066-.44c.03-.103.066-.22.11-.352.058-.132.117-.235.176-.308.03-.117.073-.242.132-.374a1.72 1.72 0 0 1 .198-.374c.03-.103.051-.227.066-.374.03-.147.073-.227.132-.242a.727.727 0 0 0 .022-.176c.014-.059.044-.14.088-.242a5.61 5.61 0 0 1 .198-.704c.102-.308.227-.645.374-1.012.161-.425.271-.792.33-1.1.058-.323-.022-.528-.242-.616-.117-.059-.19-.19-.22-.396-.03-.22-.015-.44.044-.66.059-.22.147-.352.264-.396a1.47 1.47 0 0 1 .484-.11c.19-.015.36-.015.506 0 .161 0 .234.015.22.044 0 .073.036.117.11.132.03-.044.088.022.176.198.102.161.198.345.286.55.088.205.132.345.132.418a.384.384 0 0 0-.044.11h.088l.242-.11c.161-.088.33-.183.506-.286a2.35 2.35 0 0 0 .374-.264l.11-.044a.837.837 0 0 0 .22-.154c.293-.117.608-.14.946-.066.352.073.63.205.836.396.293.367.513.821.66 1.364.161.543.14 1.07-.066 1.584a3.68 3.68 0 0 1-.198.374c-.088.161-.176.315-.264.462l-.132.198a5.917 5.917 0 0 1-1.122 1.32c-.396.352-.829.66-1.298.924a2.433 2.433 0 0 1-.616.286 5.18 5.18 0 0 1-.704.198c-.206.044-.33.051-.374.022-.162-.117-.308-.367-.44-.748l-.22.572a5.97 5.97 0 0 0-.11.352 5.01 5.01 0 0 1-.044.264.277.277 0 0 1-.11.154l-.022.088a.886.886 0 0 1-.154.264c-.147.425-.264.755-.352.99-.088.25-.161.447-.22.594-.044.161-.088.33-.132.506a4.69 4.69 0 0 1-.286 1.254c-.147.44-.36.704-.638.792Zm3.278-7.15.308-.154c.161-.073.337-.161.528-.264.19-.117.367-.227.528-.33.176-.117.3-.22.374-.308.117-.132.183-.235.198-.308.014-.088.051-.227.11-.418a19.7 19.7 0 0 1 .154-.396 7.67 7.67 0 0 0 .154-.418.607.607 0 0 0 .066-.352.448.448 0 0 0-.132-.33c-.059-.015-.198.007-.418.066a2.927 2.927 0 0 0-.726.352c-.264.176-.528.433-.792.77-.308.396-.513.755-.616 1.078-.103.308-.125.557-.066.748.058.176.169.264.33.264Zm14.566 4.004a.21.21 0 0 1-.198.066c-.073 0-.19-.037-.352-.11a1.504 1.504 0 0 1-.747-.484c-.206-.25-.235-.535-.088-.858.058-.103.132-.323.22-.66.102-.352.212-.755.33-1.21a6831.376 6831.376 0 0 1 .66-2.552l.175-.704c0-.117.03-.352.088-.704.074-.352.14-.748.198-1.188.162-.308.272-.645.33-1.012.074-.367.125-.63.154-.792.06-.235.125-.484.199-.748.087-.264.16-.528.22-.792.058-.235.117-.477.175-.726.074-.25.11-.41.11-.484v-.352h-.813a6.34 6.34 0 0 1-.748 0 17.693 17.693 0 0 0-.925-.022c-.689-.03-1.15-.095-1.386-.198-.22-.117-.344-.337-.373-.66a.568.568 0 0 1 .11-.462c.102-.147.344-.264.725-.352.382-.088.968-.117 1.76-.088.617-.03 1.1-.03 1.453 0 .351.015.557.022.615.022a.39.39 0 0 0 .11-.176.852.852 0 0 1 .067-.176c0-.073.007-.154.022-.242.029-.103.102-.176.22-.22.117-.22.337-.308.66-.264.337.03.586.161.748.396a.679.679 0 0 1 .043.418.504.504 0 0 0 .133.396c.058-.059.212-.095.462-.11.249-.015.513-.03.791-.044.338 0 .639-.007.903-.022.264-.03.447-.044.55-.044.131-.073.3-.11.505-.11.22 0 .44.015.66.044.338 0 .572.088.705.264.146.161.242.279.285.352v.176a.388.388 0 0 0 .11.176c.06.059.088.103.088.132 0 .015-.029.08-.088.198a.746.746 0 0 1-.308.154c-.146.03-.308.044-.483.044-.103 0-.28.015-.529.044a10.81 10.81 0 0 1-.638.022c-.337.059-.667.11-.99.154-.322.03-.74.059-1.254.088-.22 0-.425.015-.615.044-.191.015-.287.059-.287.132-.058 0-.139.154-.242.462-.087.308-.175.63-.264.968a8.294 8.294 0 0 1-.285.99c-.088.279-.162.462-.22.55.058.059.08.132.066.22 0 .088-.044.242-.133.462a2.912 2.912 0 0 1-.175.484.996.996 0 0 0-.067.352l-.11.352a9.93 9.93 0 0 0-.175.836c-.03.323-.074.594-.133.814-.044.22-.095.36-.154.418l-.087.154a.542.542 0 0 0-.089.308c0 .132-.029.352-.087.66a12.66 12.66 0 0 1-.154.836c-.06.264-.11.41-.154.44.146.03.124.227-.067.594 0 .147-.022.293-.066.44a1.29 1.29 0 0 0-.066.308c-.087.279-.212.616-.373 1.012-.162.396-.316.748-.462 1.056-.133.308-.22.484-.265.528Zm13.993-1.078a5.503 5.503 0 0 1-.88.154.859.859 0 0 1-.77-.264l-.352-.55c-.103-.161-.169-.447-.198-.858-.015-.279 0-.58.044-.902.058-.337.08-.58.066-.726.117-.543.146-.931.088-1.166-.044-.235-.103-.352-.176-.352-.162-.03-.418.088-.77.352a12.42 12.42 0 0 0-1.21 1.122 45.41 45.41 0 0 0-1.474 1.606c-.279.381-.484.667-.616.858-.118.176-.206.264-.264.264-.264 0-.506-.044-.726-.132a1.28 1.28 0 0 1-.528-.374 1.077 1.077 0 0 1-.242-.506c0-.059.036-.213.11-.462.073-.264.161-.565.264-.902l.286-.946c.102-.293.176-.499.22-.616.132-.381.286-.843.462-1.386.19-.557.359-1.049.506-1.474.058-.19.161-.462.308-.814l.44-1.1c.146-.367.249-.638.308-.814.044-.117.124-.323.242-.616.117-.308.242-.645.374-1.012.146-.367.278-.704.396-1.012.132-.323.22-.557.264-.704a.914.914 0 0 1 .022-.352c.044-.117.088-.205.132-.264h.198l.11-.022c0-.03.095 0 .286.088.205.088.403.198.594.33.205.117.308.22.308.308.073.19.08.44.022.748-.059.293-.213.74-.462 1.342-.162.235-.323.587-.484 1.056-.147.47-.294.865-.44 1.188a7.067 7.067 0 0 0-.264.55l-.374.902c-.132.337-.264.697-.396 1.078-.132.381-.25.755-.352 1.122-.147.352-.198.587-.154.704.044.117.22-.015.528-.396.41-.44.792-.836 1.144-1.188.366-.352.704-.63 1.012-.836.322-.22.608-.315.858-.286.132.03.3.125.506.286.22.147.425.323.616.528.205.19.337.374.396.55.058.205.095.403.11.594.029.19.036.462.022.814-.015.337-.052.843-.11 1.518-.088.499-.147.858-.176 1.078-.03.205-.022.352.022.44.058.088.146.183.264.286.22.176.308.389.264.638a.737.737 0 0 1-.374.528Zm2.681-.44a4.865 4.865 0 0 1-.44-.396c-.146-.161-.198-.389-.154-.682.044-.41.103-.77.176-1.078.074-.323.162-.69.264-1.1.03-.176.103-.477.22-.902.132-.425.286-.887.462-1.386.176-.499.36-.968.55-1.408.19-.455.36-.792.506-1.012.162-.147.396-.22.704-.22.323 0 .543.059.66.176.162.132.213.367.154.704-.058.323-.264.829-.616 1.518a5.165 5.165 0 0 1-.286.572 3.21 3.21 0 0 0-.22.484c-.044.117-.03.169.044.154.088-.161.25-.345.484-.55.235-.22.484-.433.748-.638.264-.205.514-.389.748-.55.235-.161.396-.264.484-.308.118-.073.25-.132.396-.176a3.71 3.71 0 0 0 .33-.132 1.99 1.99 0 0 1 1.1-.176c.41.03.66.154.748.374a.383.383 0 0 0 .132.264l.132.088c.059 0 .088.022.088.066l.022.066c0 .103-.102.25-.308.44a.974.974 0 0 1-.638.308c-.19.015-.36.051-.506.11-.146.059-.322.132-.528.22a71.01 71.01 0 0 1-1.518.858c-.44.25-.894.63-1.364 1.144a3.496 3.496 0 0 1-.33.33 1.97 1.97 0 0 0-.352.44c-.073.073-.146.235-.22.484-.073.25-.14.491-.198.726-.044.22-.066.352-.066.396l-.066.22a1.34 1.34 0 0 1-.22.396c-.176.235-.352.381-.528.44-.161.059-.36-.03-.594-.264Zm9.732.99c-.807 0-1.43-.235-1.87-.704-.425-.47-.638-1.188-.638-2.156 0-.528.095-1.107.286-1.738.205-.63.47-1.247.792-1.848a8.65 8.65 0 0 1 1.1-1.562c.396-.455.792-.77 1.188-.946.147-.073.3-.125.462-.154.176-.044.345-.066.506-.066.176 0 .367.015.572.044.22.015.425.059.616.132.337.103.63.3.88.594.264.293.396.719.396 1.276 0 .147-.015.308-.044.484-.03.161-.08.323-.154.484-.19.484-.484.946-.88 1.386-.381.44-.785.748-1.21.924a1.718 1.718 0 0 1-.352.132 2.332 2.332 0 0 1-.33.022 2.5 2.5 0 0 1-.836-.132 2.854 2.854 0 0 1-.66-.352l-.176-.154-.11.22a6.03 6.03 0 0 0-.22.704c-.03.19-.044.33-.044.418a7 7 0 0 0 .022.55.971.971 0 0 0 .132.44.65.65 0 0 0 .22.176.948.948 0 0 0 .374.066h.242c.088-.015.161-.03.22-.044a1.51 1.51 0 0 0 .638-.286 3.31 3.31 0 0 1 .55-.374l.088-.044-.022-.066a4.26 4.26 0 0 1 .506-.242c.088-.044.154-.08.198-.11a.273.273 0 0 1 .198-.088c.205-.03.403.03.594.176.205.132.308.3.308.506 0 .088-.066.227-.198.418-.117.19-.271.381-.462.572-.176.176-.36.315-.55.418a.558.558 0 0 0-.132.066.558.558 0 0 0-.132.066h.022c-.132.176-.264.264-.396.264h-.176c-.059.103-.25.213-.572.33a2.489 2.489 0 0 1-.946.198Zm1.144-5.302c.132 0 .25-.022.352-.066a2.27 2.27 0 0 0 .33-.154c.352-.25.58-.572.682-.968.103-.396.066-.697-.11-.902a.212.212 0 0 0-.11-.088.272.272 0 0 0-.154-.044c-.161 0-.345.051-.55.154-.19.103-.381.25-.572.44-.19.19-.367.418-.528.682l-.286.462a.168.168 0 0 1 .066-.022.168.168 0 0 1 .066-.022c.132 0 .22.044.264.132.044.088.095.176.154.264.073.088.205.132.396.132Zm5.456 4.708c-.572-.235-.968-.616-1.188-1.144-.22-.528-.279-1.232-.176-2.112.029-.455.014-.755-.044-.902a1.179 1.179 0 0 0-.33-.462 2.123 2.123 0 0 0-.308-.286c-.162-.147-.235-.257-.22-.33a.75.75 0 0 1 .066-.374c.058-.161.11-.25.154-.264a3.05 3.05 0 0 0 .308-.154c.117-.059.205-.073.264-.044.058 0 .146.037.264.11.132.073.198.14.198.198.058.103.146.059.264-.132.132-.19.271-.433.418-.726.146-.235.33-.455.55-.66.22-.205.44-.389.66-.55.234-.176.432-.308.594-.396a5.09 5.09 0 0 1 1.1-.264c.234-.044.41-.059.528-.044.264.015.542.125.836.33.293.205.52.396.682.572.19.132.315.337.374.616.073.264.102.543.088.836a1.87 1.87 0 0 1-.176.748c-.044.147-.198.352-.462.616s-.558.52-.88.77c-.308.235-.572.396-.792.484a6.22 6.22 0 0 1-.682.11 6.344 6.344 0 0 1-.748 0c-.22-.03-.374-.066-.462-.11-.103-.059-.191-.037-.264.066-.059.088-.11.337-.154.748-.015.161-.015.3 0 .418.029.117.058.205.088.264.102.176.205.308.308.396.102.073.293.095.572.066.278-.03.557-.198.836-.506.293-.323.557-.58.792-.77.058-.103.183-.169.374-.198.205-.044.447-.03.726.044.161.103.234.264.22.484 0 .22-.118.543-.352.968-.044.103-.169.257-.374.462-.191.19-.404.389-.638.594-.22.19-.404.33-.55.418-.44.235-.873.345-1.298.33a3.663 3.663 0 0 1-1.166-.22Zm1.628-4.95a4.96 4.96 0 0 0 .55-.176c.161-.059.315-.154.462-.286a3.84 3.84 0 0 0 .506-.594c.058-.161.088-.3.088-.418.014-.117.007-.19-.022-.22-.118-.117-.25-.154-.396-.11a1.23 1.23 0 0 0-.44.22c-.103.044-.25.14-.44.286a4.956 4.956 0 0 0-.528.462 3.52 3.52 0 0 0-.396.462c-.088.132-.103.213-.044.242-.03.059.051.095.242.11.205.015.344.022.418.022ZM12.08 38.325l-.24.508c.174-.347.344-.69.49-1.012l-.25.504c-.119.253.124-.253 0 0Zm-2.348 4.131c-.03.034-.073.104-.142.233.051-.07.097-.153.142-.233Zm19.291 6.847.012-.11c-.04.078-.037.109-.012.11ZM13.316 36.49l-.033.046c-.137.206-.082.127.033-.045Z"/><path fill="#3758F9" d="M13.28 36.101a3.865 3.865 0 0 1-.32.498c.147-.146.3-.285.428-.445.347-.363.707.24.856.535-.009.052-.12-.114-.128-.125-.098-.136-.197-.298-.35-.394-.096-.057-.187-.039-.247.027-.08.111-.144.213-.202.295l.153-.202-.023.06a26.503 26.503 0 0 0-1.72 2.765l-.029.042.147-.323c-.392.782-.79 1.56-1.163 2.353l-.003-.035a3.915 3.915 0 0 0-.065.183c-.18.38-.353.765-.522 1.148.01-.123-.034-.084-.23.394-.013-.105.042-.219.073-.31a7.66 7.66 0 0 1 .221-.569c.218-.512.457-1.014.72-1.503-.155.296-.303.663-.553.901-.064.062-.035-.057-.027-.086.064-.222.169-.43.262-.638-.272.272-.489 1.162-.823 1.784.085-.1.032.126.088.095-.178-.043-1.03 2.392-.932 2.48l.415-1.25c.098-.022-.069.554-.15.896-.683 1.654-1.347 3.317-1.85 5.045-.235.802-.455 1.616-.6 2.448-.135.772-.179 1.582.022 2.4-.049-.008-.083-.08-.124-.108-.081-.053-.042.217-.042.231.083.347.495 1.668 1.067 1.213l.004-.004c.74.013 1.343-.472 1.889-.792.765-.45 1.655-.774 2.483-1.143 1.8-.8 3.663-1.493 5.627-2.02.011.021-.045.064-.193.133 1.036-.247.557-.178.403-.19.276-.073.552-.144.83-.208.26-.062.371-.226.422-.46.02-.02.04-.039.05-.009a.275.275 0 0 1-.002.121.608.608 0 0 1-.135.29c.227-.209.36-.76.105-1.063-.052-.511-.19-1.068-.464-1.56-.065-.117-.165-.297-.313-.351-.102-.038-.227.025-.317.046l-.53.131c-.163.02-.327.042-.497.047-.853.245-1.288.411-1.526.531-.481.152-.958.313-1.425.484.211-.102.333-.182.26-.228-.864.438-1.772.813-2.665 1.21 1.495-1.93 3.175-3.735 4.963-5.44a35.84 35.84 0 0 1 2.864-2.478c.96-.74 1.994-1.478 3.218-1.896.006.04.017.08.02.12.265 1.644.038 3.263-.156 4.832-.207 1.653-.553 3.272-.633 4.956v-.012c-.093.715-.05.963-.008 1.138.011.348.034.697.119 1.05-.136-.311-.242-.574-.302-.89.052.52.199 1.022.508 1.507.135.318.314.622.535.895.026.066-.04.027-.03.073.196.216.423.404.682.557.822.608 1.911.777 2.765.485.138-.014.28-.105.391-.161.205-.105.398-.224.584-.352.369-.26.7-.556 1.026-.855.716-.66 1.433-1.322 2.13-2 .179-.133.302-.215.358-.231a.705.705 0 0 1 .098-.215 71.416 71.416 0 0 1 3.211-2.96c.508-.21-.896.903-1.416 1.524.422-.387.857-.769 1.252-1.181.352-.368.676-.757 1.03-1.122.318-.273.718-.669 1.108-1.056a55.14 55.14 0 0 1 1.741-1.416c-.038.037-.074.072-.11.11a5.572 5.572 0 0 1 1-.67c.365-.178.665-.439.965-.685-.205.108-.474.245-.761.415a79.796 79.796 0 0 1 2.202-1.55c.232-.138.352-.181.231-.023.663-.45 1.126-.808 1.277-.972.39-.252.784-.5 1.18-.746-.427.387-1.486 1.087-.261.417l1.003-.783c.23-.068 2.007-1.105 2.016-.938.618-.374.68-.482 1.174-.798.53-.21.926-.365 1.492-.778-1.462.723-2.93 1.435-4.331 2.237a.383.383 0 0 1 .107-.087 85.698 85.698 0 0 1 5.913-3.235c.224-.051-.389.335-.453.432 1.492-.678 1.436-.893 2.79-1.424-1.956 1.008.774-.27 1.513-.45-.908.088-1.749.476-2.525.806 2.155-.997 4.408-1.87 6.793-2.485a30.924 30.924 0 0 1 3.659-.716c.62-.082 1.268-.097 1.885-.186.467-.068.169-.553-.061-.794-.418-.43-1.112-.798-1.704-.835-.395-.025-.798.044-1.18.084-.44.045-.877.1-1.31.164-.03-.002-.043-.006-.036-.012l-.11.035c-.776.119-1.54.264-2.29.437.173-.084.453-.176.92-.272-1.272.142-2.498.454-3.66.835-1.106.363-2.223.779-3.179 1.362-.033.015-.068.028-.104.043-.057.018-.351.156-.428.109-.021-.013.247-.166.263-.174.201-.108.406-.208.614-.305.426-.2.859-.388 1.282-.594-2.325.812-4.521 1.816-6.656 2.909a79.574 79.574 0 0 0-6.067 3.441c-.242.151-.48.305-.721.458.069.21-.386.408-.922.944l-.445.207c.15-.07-.042.15.098.128a66.835 66.835 0 0 0-5.944 4.562c.238-.34.506-.659.805-.955-1.652 1.573-3.445 3.017-5.01 4.666.085-.174.239-.324.365-.47a26.8 26.8 0 0 1 .735-.806 28.87 28.87 0 0 1 1.42-1.445c-.437.388-.846.805-1.261 1.212-.179.174-.356.348-.54.515-.056.05-.205.232-.309.218l-.023.242c-1.25 1.226.055-.255-.434.076-.47.457-1.006.915-1.356 1.463-.04.065-.093.144-.086.23a.21.21 0 0 0 .02.063c.092.178-.034.32-.127.452-.374.376-.781.81-1.23 1.214-.414.331-.799.677-1.289.927-.008-.053-.013-.107-.02-.16.067.122.152-.273.161-.312-.23-.33-.178-.821-.153-1.155.02-.269.061-.533.099-.795.101-.676.205-1.349.296-2.026.102-.028-.057 1.199.048 1.369.035-.726.136-1.44.208-2.158.037-.361.07-.725.083-1.092.008-.21.048-.468-.033-.684.112-.946.254-1.887.305-2.846.048-.924-.005-1.894-.384-2.835.093.22.173.442.247.666.028.087.066.316.17.36.22.108.243.508.28.682-.163-.839-.387-1.848-1.11-2.539-.777-.741-1.981-1.134-3-1.197a2.639 2.639 0 0 0-.713.075c-1.066.18-1.941.78-2.747 1.334-.028-.03-.015-.095.048-.227-.553.342-1.163.691-1.542 1.197-.322.43-.82.766-1.237 1.114.33-.268.664-.536.999-.798-.025.024-.05.045-.075.07a38.628 38.628 0 0 0-2.916 2.66c.014-.09.1-.235-.185.06-.353.59-.916 1.072-1.418 1.552-.5.476-1.015.94-1.474 1.448.174-.375.358-.78.542-1.205.052-.3.196-.585.307-.861.204-.498.42-.992.637-1.486.215-.489.442-.973.665-1.457.138-.3.295-.597.4-.914-.245.54-.466.993-.815 1.645l-.102-.18c.583-1.2.17-.01.648-1.195-.316.09-.815 1.652-1.21 2.497.09-.333.241-.782.467-1.316-.137.288-.274.576-.41.868.167-.367.334-.731.507-1.095-.033.076-.067.151-.097.227.314-.656.625-1.312.973-1.95-.002.077.041.069.184-.128.423-.664.847-1.327 1.174-2.045.233-.343.24-.817.168-1.274.02-.192.058-.346.026-.551a2.912 2.912 0 0 0-.424-.988 1.1 1.1 0 0 0-.218-.238c.178.13.299.312.404.484.137.227.298.488.333.733l.085.177a2.492 2.492 0 0 0-.02-.181c-.073-.348-.2-.724-.452-1.032-.23-.282-.63-.511-.888-.232a.552.552 0 0 0-.045.066c.007-.015-.008.015 0 0l.012.001Zm-3.635 12.43-.012.012c.075-.185.149-.373.226-.558l.018-.03a4.647 4.647 0 0 1-.233.576c.066-.131-.004.003 0 0h.001Zm42.063-11.228c-.715.344-.475.18-.848.318.313-.154.628-.305.946-.454l-.097.137h-.002Zm-26.361 5.444c.065.64.036 1.274-.023 1.895.052-.673.066-1.36-.03-2.057a3.822 3.822 0 0 0-.019-.368s.043.212.073.529c.033.316-.031-.318 0 0l-.001.001Zm-15.268 5.104c-.189.353-.23.288-.184.077.014-.026.018-.041.009-.04.002-.004.002-.01.003-.015.238-.562.49-1.12.737-1.675-.222.536-.438 1.079-.565 1.653-.189.353.114-.508 0 0Z"/><path fill="#3758F9" d="M12.96 36.599a3.84 3.84 0 0 0-.423.51c.18-.203.314-.367.422-.51Zm47.2-4.359c.054-.018.1-.036.136-.052a.424.424 0 0 0-.135.053Zm4.36 1.724c-.189.019-.378.04-.566.06l.55.019c.018 0 .033-.002.046 0l.04-.002c.34-.086.592-.29.533-.653a1.126 1.126 0 0 0-.233-.483c-.057-.078-.285-.38-.407-.388.001.015.01.03.028.04.518.445.884 1.307.012 1.404.076-.007-.107.013 0 0l-.002.003Zm-5.695.92-.493.237c.902-.254 1.741-.597 2.677-.78-.568.09-1.128.195-1.683.312l-.5.23c.251-.115-.246.117 0 0l-.002.001Zm-2.437.586.335-.164c-.322.13-.384.168-.335.163Z"/><path fill="#3758F9" d="M56.827 35.508c.5-.196 1.01-.375 1.01-.375-.271.073-.54.147-.81.224-.038-.043-.554.108-.64.112-.237.12-.475.242-.714.365.18-.08.55-.237.694-.269l-.534.345s.49-.21.992-.403c.5-.196-.502.193 0 0h.002Zm-2.184.708c.052-.006.12-.018.162-.016.004-.022-.058-.012-.162.016ZM35.3 47.916l.75-.624.178-.252c-.31.29-.621.581-.929.876Zm-4.618 4.314c.033-.055.024-.072-.016-.061-.004.03 0 .051.016.06Zm-8.964.023a8.887 8.887 0 0 1-.05-.554c-.002.216.02.393.05.554Zm9.295-.266-.38.425.33-.242.05-.183Zm-9.373-.886c-.024-.175-.043-.351-.063-.525l.005.397c-.018.33.044.462.058.128Zm.293-1.961c.054-.193.11-.385.11-.385l-.016-.516c-.07.429-.136.858-.2 1.287l.106-.387c-.053.194.054-.192 0 0ZM7.932 47.012c-.492 1.058-.704 2.116-1.009 3.234.33-.99.736-2.325 1.01-3.234Zm2.831-6.928c.163-.288.333-.578.444-.892a.743.743 0 0 0 .05-.206c.005-.15-.13-.107-.239-.108-.1.274-.264.64.045.093a88.91 88.91 0 0 0-.301 1.111l.001.002Zm2.597 2.086c.213-.475.439-.943.68-1.405-.137.23-.274.46-.41.694.113-.394.213-.664.46-1.205-.583 1.005-.99 2.043-.729 1.914v.001Zm1.166-2.622c.176-.17.288-.343.307-.598-.06.225-.183.407-.307.598.031-.03.056-.084 0 0Z"/><path fill="#3758F9" d="M14.09 40.255c.14-.243.288-.484.438-.705-.202.201-.319.454-.439.705.032-.063.14-.243 0 0Zm-2.472 5.41.466-.934c-.043-.273.601-1.115.643-1.565-.386.825-.746 1.663-1.109 2.5Zm6.5-5.453a.965.965 0 0 0 .148-.068c-.048.019-.098.044-.148.068Zm0 0c-.24.07 1.127-.92-.534.155-.565.53-1.188 1.006-1.78 1.51-.629.538-1.239 1.093-1.85 1.646l.322-.107c.633-.574 1.229-1.177 1.863-1.747.596-.537 1.22-1.094 1.979-1.457-.511.245-.24.07 0 0Zm2.748-1.142c-.255.13-.537.174-.828.238-.131.029-.255.07-.37.126-.052.025-.327.145-.309.211a27.9 27.9 0 0 1 .503-.153c.217-.092.442-.175.669-.252.079-.026.434-.078.455-.155.005-.02-.123-.015-.12-.015-.271.139.217-.003 0 0Zm4.749 4.679c-.004.375-.022.748.004 1.127.02.304.11.602.115.907.085-.468.134-.956.106-1.447-.007-.11.008-.328-.078-.43-.039-.044-.106.34-.108.362.027-.535-.017-1.298-.038-.517.02-.78-.01.81 0 0v-.002Zm.29 9.034c.184-.256.367-.513.548-.772l-.327.29a26.72 26.72 0 0 1-.221.482Zm8.124-8.067c-.457.382-.909.766-1.358 1.154l.52-.309.837-.845Zm1.205-.768c.311-.242.624-.482.624-.482l-.476.302c-.628.441-.357.343-.767.672 0 0 .31-.245.619-.492-.309.247.311-.242 0 0Zm2.246-1.678-.556.448c.499-.377.998-.752 1.504-1.123-.16.125-.275.178-.384.23l-.563.444c-.279.225.282-.221 0 0Z"/></svg>