<svg xmlns="http://www.w3.org/2000/svg" width="98" height="56" fill="none"><path fill="#3758F9" d="M10.198 20.43a8.91 8.91 0 0 1-.638-.198l-.242-.066c.03-.073.015-.14-.044-.198-.044-.059-.146-.095-.308-.11a3.64 3.64 0 0 1-.682-.616 6.25 6.25 0 0 1-.616-.814 5.55 5.55 0 0 1-.352-.616c-.102-.22-.095-.352.022-.396.118-.059.257-.125.418-.198.162-.117.33-.205.506-.264.19-.059.345.037.462.286.19.337.484.623.88.858.41.235.873.374 1.386.418a3.348 3.348 0 0 0 1.584-.264c.352-.161.543-.381.572-.66.03-.293-.08-.63-.33-1.012a.67.67 0 0 0-.198-.286 3.126 3.126 0 0 0-.352-.286 11.29 11.29 0 0 1-.638-.572l-.616-.286-.572-.286a6.428 6.428 0 0 1-.792-.484 7.586 7.586 0 0 1-.814-.704 3.911 3.911 0 0 1-.572-.748c-.234-.22-.381-.52-.44-.902a4.017 4.017 0 0 1 .022-1.254c.088-.44.228-.836.418-1.188.088-.205.25-.47.484-.792.235-.337.499-.682.792-1.034.294-.352.572-.667.836-.946.279-.293.499-.491.66-.594.118-.117.242-.235.374-.352l.198-.198c.015-.073.037-.11.066-.11h.066c.074-.044.235-.117.484-.22.25-.103.52-.293.814-.572.983-.47 1.819-.785 2.508-.946.69-.176 1.232-.264 1.628-.264a2.45 2.45 0 0 1 1.078.308c.352.176.653.403.902.682.264.279.418.594.462.946.103.352.052.777-.154 1.276-.19.484-.462.946-.814 1.386-.337.425-.69.74-1.056.946-.41.176-.762.198-1.056.066-.278-.132-.41-.337-.396-.616 0-.117.037-.257.11-.418.088-.161.316-.447.682-.858.47-.69.719-1.18.748-1.474.03-.293-.102-.462-.396-.506-.088-.03-.256-.022-.506.022s-.52.103-.814.176a6.83 6.83 0 0 0-.748.198c-.205.073-.308.125-.308.154v.066c0 .044-.03.059-.088.044-.03 0-.132.051-.308.154-.161.088-.36.205-.594.352-.234.147-.47.3-.704.462-.22.147-.41.279-.572.396-.161.117-.25.19-.264.22-.03.161-.198.308-.506.44-.293.176-.55.425-.77.748-.22.323-.476.733-.77 1.232a3.17 3.17 0 0 0-.528 1.1c-.102.381-.102.69 0 .924.074.235.272.47.594.704.338.22.792.499 1.364.836.499.279.968.572 1.408.88.44.308.814.609 1.122.902.308.279.506.513.594.704.176.25.279.535.308.858.044.323.044.638 0 .946-.03.293-.073.535-.132.726a3.2 3.2 0 0 1-.484.748c-.205.264-.396.389-.572.374a1.304 1.304 0 0 0-.374.154c-.073.059-.161.11-.264.154-.102.059-.344.125-.726.198a9.78 9.78 0 0 1-1.254.198c-.454.059-.85.08-1.188.066Zm9.232-1.408c-.16-.03-.337-.125-.527-.286a4.878 4.878 0 0 1-.528-.572 2.205 2.205 0 0 1-.287-.55c0-.03-.021-.066-.066-.11l-.043-.066c-.06-.044-.096-.235-.11-.572 0-.352.021-.74.066-1.166a8.39 8.39 0 0 1 .154-1.012c.073-.235.183-.55.33-.946.146-.41.27-.777.373-1.1l.595-1.276-.88-.242a.527.527 0 0 1-.265-.176.427.427 0 0 1-.088-.22c0-.117.067-.286.198-.506.133-.22.228-.33.287-.33.073.015.205.022.396.022.205 0 .403-.007.593-.022.191-.015.308-.03.352-.044.06-.03.118-.066.177-.11a.547.547 0 0 0 .131-.242c.074-.161.14-.286.198-.374.06-.088.14-.22.242-.396a7.37 7.37 0 0 0 .242-.484c.074-.132.184-.315.33-.55a5.69 5.69 0 0 0 .242-.374c.088-.147.198-.271.33-.374.133-.117.345-.198.639-.242.308-.059.572.007.791.198a.834.834 0 0 1 .198.418c.015.132-.044.3-.175.506-.118.25-.257.477-.418.682-.147.19-.287.41-.419.66-.234.323-.278.506-.131.55.146.044.557.015 1.232-.088.425-.073.733-.03.924.132.19.161.3.367.33.616.044.352.007.565-.11.638-.118.073-.455.11-1.012.11a8.746 8.746 0 0 1-.902.11h-.55a6.065 6.065 0 0 1-.374.022c-.06 0-.147.015-.264.044a.472.472 0 0 0-.265.154 1.816 1.816 0 0 0-.154.264c-.058.059-.146.213-.264.462a9.27 9.27 0 0 1-.44.814 26.35 26.35 0 0 0-.527 1.782c-.133.557-.25 1.115-.353 1.672-.044.279-.036.484.023.616.073.117.264.19.572.22.16.015.396.015.704 0 .308-.03.564-.073.77-.132.16-.073.33-.147.506-.22.175-.088.337-.176.483-.264l.396-.22.198-.132c.074-.117.176-.095.308.066.147.147.25.308.308.484 0 .176-.036.389-.11.638-.073.235-.344.484-.814.748-.66.41-1.32.66-1.98.748-.66.088-1.18.095-1.562.022Zm9.968-.462c-.44.25-.91.396-1.408.44a3.25 3.25 0 0 1-1.364-.198 2.496 2.496 0 0 1-1.034-.77c-.147-.19-.286-.491-.418-.902-.132-.425-.154-.997-.066-1.716a6.937 6.937 0 0 1 .616-2.046 7.673 7.673 0 0 1 1.232-1.826c.484-.528 1.012-.887 1.584-1.078.205-.073.41-.125.616-.154.22-.044.506-.051.858-.022.337.044.638.132.902.264.264.117.454.25.572.396.234.235.388.462.462.682.073.22.102.433.088.638-.074.47-.286.975-.638 1.518a3.051 3.051 0 0 1-1.43 1.21 2.99 2.99 0 0 1-.88.198c-.338.03-.8-.015-1.386-.132-.352-.073-.587-.037-.704.11-.103.147-.147.433-.132.858.029.264.088.499.176.704.102.19.286.323.55.396.337.059.579.066.726.022.146-.059.33-.14.55-.242.117-.073.227-.154.33-.242.117-.088.227-.176.33-.264.117-.088.212-.154.286-.198a.518.518 0 0 1 .22-.11c.073-.015.146-.022.22-.022.161.015.315.103.462.264.146.161.242.315.286.462 0 .117-.074.286-.22.506a4.627 4.627 0 0 1-.594.66 4.68 4.68 0 0 1-.792.594Zm-.286-4.906c.102-.044.249-.147.44-.308a4.59 4.59 0 0 0 .55-.506c.161-.19.242-.337.242-.44 0-.161-.11-.3-.33-.418-.206-.117-.477-.14-.814-.066-.118.03-.257.11-.418.242a4.69 4.69 0 0 0-.484.462 4.005 4.005 0 0 0-.418.484 2.19 2.19 0 0 0-.242.352c.058.073.176.132.352.176.176.044.366.066.572.066.22 0 .403-.015.55-.044Zm3.19 9.416c-.206.059-.419.007-.639-.154a1.614 1.614 0 0 1-.484-.66 1.233 1.233 0 0 1 0-.858c.03-.088.074-.235.132-.44.059-.19.096-.36.11-.506a4.52 4.52 0 0 1 .132-.528c.074-.235.154-.47.242-.704.103-.235.184-.403.242-.506.088-.147.147-.315.176-.506a2.11 2.11 0 0 0 .066-.44c.03-.103.066-.22.11-.352.059-.132.118-.235.176-.308.03-.117.074-.242.132-.374.059-.147.125-.271.198-.374.03-.103.052-.227.066-.374.03-.147.074-.227.132-.242a.727.727 0 0 0 .022-.176c.015-.059.044-.14.088-.242a5.61 5.61 0 0 1 .198-.704c.103-.308.228-.645.374-1.012.162-.425.272-.792.33-1.1.059-.323-.022-.528-.242-.616-.117-.059-.19-.19-.22-.396-.029-.22-.014-.44.044-.66.059-.22.147-.352.264-.396.132-.059.294-.095.484-.11.191-.015.36-.015.506 0 .162 0 .235.015.22.044 0 .073.037.117.11.132.03-.044.088.022.176.198.103.161.198.345.286.55.088.205.132.345.132.418a.384.384 0 0 0-.044.11h.088l.242-.11c.162-.088.33-.183.506-.286a2.35 2.35 0 0 0 .374-.264l.11-.044a.837.837 0 0 0 .22-.154c.294-.117.609-.14.946-.066.352.073.631.205.836.396.294.367.514.821.66 1.364a2.34 2.34 0 0 1-.066 1.584 3.3 3.3 0 0 1-.198.374c-.088.161-.176.315-.264.462l-.132.198a5.917 5.917 0 0 1-1.122 1.32c-.396.352-.828.66-1.298.924a2.433 2.433 0 0 1-.616.286 5.18 5.18 0 0 1-.704.198c-.205.044-.33.051-.374.022-.161-.117-.308-.367-.44-.748l-.22.572a5.97 5.97 0 0 0-.11.352 5.01 5.01 0 0 1-.044.264.277.277 0 0 1-.11.154l-.022.088a.886.886 0 0 1-.154.264c-.146.425-.264.755-.352.99-.088.25-.161.447-.22.594-.044.161-.088.33-.132.506a4.614 4.614 0 0 1-.286 1.254c-.146.44-.359.704-.638.792Zm3.277-7.15.308-.154a8.1 8.1 0 0 0 .528-.264c.191-.117.367-.227.528-.33.176-.117.301-.22.374-.308.118-.132.184-.235.198-.308.015-.088.052-.227.11-.418a19.7 19.7 0 0 1 .154-.396 7.67 7.67 0 0 0 .154-.418.607.607 0 0 0 .066-.352.448.448 0 0 0-.132-.33c-.058-.015-.198.007-.418.066a2.927 2.927 0 0 0-.726.352c-.264.176-.528.433-.792.77-.308.396-.513.755-.616 1.078-.102.308-.124.557-.066.748.059.176.169.264.33.264Zm12.477 3.85a9.862 9.862 0 0 1-1.298-1.1c-.308-.352-.477-.69-.506-1.012a6.505 6.505 0 0 1 0-1.078c.044-.455.095-.902.154-1.342.059-.44.11-.77.154-.99a.325.325 0 0 0 .088-.286v-.198c-.015-.073.037-.264.154-.572.117-.323.227-.733.33-1.232.293-.88.572-1.613.836-2.2.279-.601.55-1.115.814-1.54.264-.425.528-.814.792-1.166.601-.616 1.166-1.107 1.694-1.474a10.284 10.284 0 0 1 1.496-.858c.293-.176.565-.315.814-.418.25-.103.455-.117.616-.044.821.176 1.518.535 2.09 1.078.572.543.953 1.327 1.144 2.354a13.7 13.7 0 0 1 .176 1.76 6.055 6.055 0 0 1-.11 1.54 7.642 7.642 0 0 1-.572 1.65c-.264.601-.638 1.305-1.122 2.112-.601 1.188-1.261 2.185-1.98 2.992-.704.792-1.415 1.393-2.134 1.804-.704.41-1.379.63-2.024.66-.63.044-1.166-.103-1.606-.44Zm1.76-1.452c.337-.044.609-.11.814-.198.22-.088.447-.257.682-.506a46.496 46.496 0 0 0 1.936-2.222c.264-.308.484-.623.66-.946.19-.323.367-.704.528-1.144.176-.455.367-1.034.572-1.738.117-.44.198-.763.242-.968.059-.22.095-.403.11-.55a3.939 3.939 0 0 0 0-.594V8.264a3.91 3.91 0 0 0-.154-.836c-.088-.323-.19-.55-.308-.682-.147-.161-.367-.3-.66-.418-.293-.117-.601-.103-.924.044-.176.073-.396.227-.66.462-.264.22-.535.484-.814.792-.279.308-.543.616-.792.924-.25.308-.447.587-.594.836-.147.25-.22.425-.22.528l-.022.11c0 .073-.03.147-.088.22-.19.205-.389.543-.594 1.012-.205.47-.396 1.005-.572 1.606a20.198 20.198 0 0 0-.44 1.804 12.57 12.57 0 0 0-.22 1.628v.594c0 .161.015.308.044.44.044.117.11.25.198.396.088.147.264.293.528.44.279.147.528.198.748.154Zm8.577-.066c-.058 0-.198-.051-.418-.154-.22-.117-.359-.205-.418-.264a.844.844 0 0 1-.198-.374c-.029-.147-.044-.425-.044-.836 0-.47.096-.997.286-1.584.191-.601.514-1.4.968-2.398l.902-1.826c.074-.103.14-.19.198-.264.059-.088.125-.169.198-.242h.11a.3.3 0 0 1 .132.022c.132.015.338.095.616.242.294.147.47.367.528.66 0 .19-.029.418-.088.682-.058.25-.234.58-.528.99-.117.147-.234.36-.352.638a61.49 61.49 0 0 0-.286.792 2.97 2.97 0 0 1-.132.22 6.697 6.697 0 0 0-.176.33c-.058.103-.088.169-.088.198l-.088.198.946-.924c.66-.66 1.218-1.13 1.672-1.408.455-.279.836-.396 1.144-.352.323.044.58.227.77.55.103.147.176.308.22.484.044.161.074.352.088.572.015.22.008.499-.022.836v1.254c.279-.073.492-.132.638-.176a5.21 5.21 0 0 1 .44-.154l.352-.088c.132-.03.294-.051.484-.066-.014.19-.095.425-.242.704-.146.279-.33.557-.55.836a3.468 3.468 0 0 1-.682.704c-.234.19-.454.286-.66.286-.19 0-.41-.059-.66-.176-.249-.132-.462-.381-.638-.748a10.69 10.69 0 0 1-.176-.66 3.447 3.447 0 0 1-.088-.792v-.968a.459.459 0 0 0-.022-.176c0-.044-.007-.066-.022-.066-.058 0-.249.154-.572.462-.308.308-.623.63-.946.968-.674.704-1.239 1.225-1.694 1.562-.44.337-.74.506-.902.506Zm11.176 1.144c-.807 0-1.43-.235-1.87-.704-.425-.47-.638-1.188-.638-2.156 0-.528.095-1.107.286-1.738.205-.63.47-1.247.792-1.848a8.655 8.655 0 0 1 1.1-1.562c.396-.455.792-.77 1.188-.946.147-.073.3-.125.462-.154.176-.044.345-.066.506-.066.176 0 .367.015.572.044.22.015.425.059.616.132.337.103.63.3.88.594.264.293.396.719.396 1.276 0 .147-.015.308-.044.484-.03.161-.08.323-.154.484-.19.484-.484.946-.88 1.386-.381.44-.785.748-1.21.924a1.714 1.714 0 0 1-.352.132 2.33 2.33 0 0 1-.33.022 2.5 2.5 0 0 1-.836-.132 2.858 2.858 0 0 1-.66-.352l-.176-.154-.11.22a6.05 6.05 0 0 0-.22.704c-.03.19-.044.33-.044.418a7 7 0 0 0 .022.55.973.973 0 0 0 .132.44.65.65 0 0 0 .22.176.948.948 0 0 0 .374.066h.242c.088-.015.161-.03.22-.044a1.51 1.51 0 0 0 .638-.286 3.34 3.34 0 0 1 .55-.374l.088-.044-.022-.066c.25-.132.418-.213.506-.242.088-.044.154-.08.198-.11a.274.274 0 0 1 .198-.088c.205-.03.403.03.594.176.205.132.308.3.308.506 0 .088-.066.227-.198.418a3.16 3.16 0 0 1-.462.572c-.176.176-.36.315-.55.418a.558.558 0 0 0-.132.066.558.558 0 0 0-.132.066h.022c-.132.176-.264.264-.396.264h-.176c-.059.103-.25.213-.572.33a2.488 2.488 0 0 1-.946.198Zm1.144-5.302c.132 0 .25-.022.352-.066a2.26 2.26 0 0 0 .33-.154c.352-.25.58-.572.682-.968.103-.396.066-.697-.11-.902a.212.212 0 0 0-.11-.088.271.271 0 0 0-.154-.044c-.161 0-.345.051-.55.154-.19.103-.381.25-.572.44-.19.19-.367.418-.528.682l-.286.462a.169.169 0 0 1 .066-.022.169.169 0 0 1 .066-.022c.132 0 .22.044.264.132.044.088.095.176.154.264.073.088.205.132.396.132ZM92.43 38.325l.242.508c-.175-.347-.346-.69-.492-1.012l.25.504c.12.253-.124-.253 0 0Zm2.367 4.131c.03.034.073.104.143.233-.052-.07-.098-.153-.143-.233ZM75.36 49.303l-.012-.11c.039.078.036.109.011.11ZM91.185 36.49l.034.046c.138.206.082.127-.034-.045Z"/><path fill="#3758F9" d="M91.222 36.101c.093.174.202.338.323.498-.149-.146-.303-.285-.433-.445-.349-.363-.712.24-.861.535.008.052.12-.114.128-.125.1-.136.2-.298.352-.394.097-.057.19-.039.25.027.081.111.145.213.203.295l-.154-.202.023.06a26.483 26.483 0 0 1 1.733 2.765c.01.015.02.03.03.042l-.148-.323c.394.782.795 1.56 1.171 2.353l.003-.035c.025.064.047.123.066.183.18.38.355.765.526 1.148-.01-.123.034-.084.232.394.013-.105-.042-.219-.074-.31a7.631 7.631 0 0 0-.223-.569c-.22-.512-.46-1.014-.725-1.503.156.296.305.663.557.901.064.062.035-.057.027-.086-.064-.222-.17-.43-.264-.638.275.272.493 1.162.83 1.784-.086-.1-.033.126-.089.095.18-.043 1.038 2.392.939 2.48l-.418-1.25c-.099-.022.069.554.151.896.688 1.654 1.357 3.317 1.865 5.045.236.802.458 1.616.603 2.448.136.772.18 1.582-.022 2.4.05-.008.084-.08.125-.108.082-.053.043.217.042.231-.083.347-.498 1.668-1.075 1.213a.14.14 0 0 1-.004-.004c-.744.013-1.353-.472-1.903-.792-.77-.45-1.668-.774-2.501-1.143-1.814-.8-3.691-1.493-5.67-2.02-.012.021.045.064.194.133-1.044-.247-.561-.178-.406-.19a32.112 32.112 0 0 0-.837-.208c-.261-.062-.373-.226-.424-.46-.02-.02-.04-.039-.05-.009a.272.272 0 0 0 0 .121c.016.066.039.174.138.29-.23-.209-.363-.76-.106-1.063.052-.511.191-1.068.467-1.56.065-.117.166-.297.315-.351.103-.038.229.025.32.046l.533.131c.165.02.33.042.501.047.86.245 1.299.411 1.538.531.485.152.965.313 1.437.484-.214-.102-.336-.182-.263-.228.87.438 1.786.813 2.685 1.21-1.506-1.93-3.199-3.735-5-5.44-.915-.868-1.87-1.7-2.886-2.478-.967-.74-2.009-1.478-3.243-1.896-.006.04-.017.08-.02.12-.267 1.644-.038 3.263.158 4.832.209 1.653.557 3.272.637 4.956v-.012c.094.715.05.963.008 1.138a5.088 5.088 0 0 1-.12 1.05c.138-.311.245-.574.305-.89a3.348 3.348 0 0 1-.512 1.507 3.799 3.799 0 0 1-.54.895c-.025.066.042.027.032.073a2.955 2.955 0 0 1-.688.557c-.828.608-1.926.777-2.786.485-.14-.014-.283-.105-.394-.161a5.418 5.418 0 0 1-.588-.352c-.372-.26-.705-.556-1.034-.855-.721-.66-1.444-1.322-2.146-2-.18-.133-.304-.215-.36-.231a.705.705 0 0 0-.1-.215 71.762 71.762 0 0 0-3.235-2.96c-.513-.21.903.903 1.426 1.524-.425-.387-.863-.769-1.26-1.181-.355-.368-.682-.757-1.04-1.122a24.558 24.558 0 0 1-1.115-1.056 55.567 55.567 0 0 0-1.754-1.416c.038.037.075.072.111.11a5.615 5.615 0 0 0-1.008-.67c-.368-.178-.67-.439-.973-.685.208.108.478.245.767.415a80.062 80.062 0 0 0-2.218-1.55c-.234-.138-.355-.181-.233-.023-.667-.45-1.135-.808-1.287-.972-.392-.252-.79-.5-1.189-.746.43.387 1.498 1.087.264.417l-1.011-.783c-.231-.068-2.022-1.105-2.031-.938-.623-.374-.687-.482-1.183-.798-.534-.21-.934-.365-1.504-.778 1.474.723 2.952 1.435 4.364 2.237a.385.385 0 0 0-.108-.087 86.54 86.54 0 0 0-5.957-3.235c-.227-.051.391.335.456.432-1.503-.678-1.447-.893-2.812-1.424 1.972 1.008-.779-.27-1.524-.45.915.088 1.763.476 2.544.806-2.171-.997-4.441-1.87-6.844-2.485a31.366 31.366 0 0 0-3.687-.716c-.624-.082-1.278-.097-1.899-.186-.47-.068-.17-.553.062-.794.42-.43 1.12-.798 1.716-.835.398-.025.804.044 1.188.084.444.045.885.1 1.32.164.03-.002.044-.006.038-.012l.11.035a31.78 31.78 0 0 1 2.308.437c-.175-.084-.457-.176-.927-.272 1.281.142 2.517.454 3.688.835 1.114.363 2.24.779 3.202 1.362l.105.043c.058.018.354.156.432.109.02-.013-.249-.166-.265-.174-.203-.108-.41-.208-.619-.305-.429-.2-.865-.388-1.292-.594 2.343.812 4.555 1.816 6.707 2.909a80.359 80.359 0 0 1 6.112 3.441c.244.151.485.305.727.458-.069.21.389.408.93.944l.447.207c-.151-.07.043.15-.098.128a67.273 67.273 0 0 1 5.988 4.562 6.9 6.9 0 0 0-.81-.955c1.665 1.573 3.47 3.017 5.048 4.666-.086-.174-.24-.324-.368-.47a26.99 26.99 0 0 0-.741-.806c-.465-.492-.93-.984-1.431-1.445.441.388.852.805 1.271 1.212.18.174.359.348.544.515.057.05.206.232.311.218l.024.242c1.26 1.226-.056-.255.437.076.474.457 1.014.915 1.366 1.463.041.065.094.144.087.23a.208.208 0 0 1-.02.063c-.093.178.034.32.128.452.376.376.787.81 1.24 1.214.416.331.804.677 1.298.927.008-.053.013-.107.02-.16-.068.122-.153-.273-.163-.312.232-.33.18-.821.155-1.155-.02-.269-.062-.533-.1-.795-.102-.676-.207-1.349-.298-2.026-.102-.028.058 1.199-.048 1.369-.036-.726-.137-1.44-.21-2.158-.038-.361-.07-.725-.084-1.092-.007-.21-.048-.468.034-.684-.114-.946-.256-1.887-.307-2.846-.05-.924.004-1.894.386-2.835-.093.22-.174.442-.248.666-.029.087-.067.316-.172.36-.222.108-.245.508-.281.682.163-.839.39-1.848 1.117-2.539.783-.741 1.996-1.134 3.024-1.197.253-.01.491.022.718.075 1.074.18 1.955.78 2.767 1.334.029-.03.015-.095-.048-.227.557.342 1.172.691 1.553 1.197.325.43.826.766 1.247 1.114a74.783 74.783 0 0 0-1.006-.798c.025.024.05.045.075.07a38.808 38.808 0 0 1 2.938 2.66c-.014-.09-.1-.235.186.06.356.59.924 1.072 1.43 1.552.503.476 1.022.94 1.484 1.448-.175-.375-.36-.78-.546-1.205-.052-.3-.197-.585-.31-.861a59.801 59.801 0 0 0-.641-1.486c-.217-.489-.445-.973-.67-1.457-.139-.3-.297-.597-.402-.914.246.54.468.993.82 1.645l.103-.18c-.587-1.2-.171-.01-.653-1.195.319.09.822 1.652 1.22 2.497a10.82 10.82 0 0 0-.471-1.316c.138.288.276.576.412.868a62.554 62.554 0 0 0-.51-1.095c.033.076.067.151.098.227-.316-.656-.63-1.312-.981-1.95.002.077-.041.069-.185-.128-.427-.664-.853-1.327-1.183-2.045-.234-.343-.241-.817-.17-1.274-.02-.192-.058-.346-.026-.551.072-.33.222-.687.428-.988.065-.087.127-.17.22-.238-.18.13-.302.312-.408.484-.138.227-.3.488-.335.733l-.086.177c.006-.066.01-.122.02-.181.074-.348.201-.724.456-1.032.232-.282.635-.511.895-.232a.571.571 0 0 1 .045.066l-.012.001Zm3.662 12.43.012.012c-.076-.185-.15-.373-.228-.558l-.017-.03a4.536 4.536 0 0 0 .234.576ZM52.503 37.304c.72.344.478.18.854.318a56.637 56.637 0 0 0-.953-.454l.098.137h.001Zm26.56 5.444c-.066.64-.036 1.274.023 1.895-.052-.673-.066-1.36.031-2.057a3.769 3.769 0 0 1 .019-.368s-.044.212-.074.529c-.033.316.032-.318 0 0l.002.001Zm15.384 5.104c.19.353.233.288.186.077-.014-.026-.02-.041-.01-.04-.002-.004-.002-.01-.003-.015-.24-.562-.493-1.12-.743-1.675.225.536.442 1.079.57 1.653.19.353-.115-.508 0 0Zm-2.902-11.253c.097.093.22.23.425.51a8.482 8.482 0 0 1-.425-.51Z"/><path fill="#3758F9" d="M43.986 32.24a1.782 1.782 0 0 1-.136-.052.43.43 0 0 1 .136.053Zm-4.393 1.724.57.06-.554.019c-.018 0-.033-.002-.045 0l-.041-.002c-.343-.086-.597-.29-.537-.653a1.13 1.13 0 0 1 .234-.483c.059-.078.288-.38.411-.388a.054.054 0 0 1-.029.04c-.521.445-.89 1.307-.012 1.404-.076-.007.108.013 0 0l.003.003Zm5.739.92.496.237c-.908-.254-1.754-.597-2.697-.78.572.09 1.137.195 1.696.312a164.15 164.15 0 0 0 .504.23l.001.001Zm2.455.586-.337-.164c.324.13.386.168.337.163Z"/><path fill="#3758F9" d="M47.345 35.508c-.503-.196-1.018-.375-1.018-.375.273.073.545.147.817.224.037-.043.557.108.643.112.24.12.48.242.72.365-.18-.08-.553-.237-.7-.269l.54.345s-.495-.21-1-.403c-.504-.196.505.193 0 0h-.002Zm2.201.708c-.053-.006-.121-.018-.164-.016-.004-.022.058-.012.164.016Zm19.49 11.7-.757-.624-.18-.252c.314.29.627.581.937.876Zm4.652 4.314c-.034-.055-.025-.072.016-.061.004.03 0 .051-.016.06Zm9.032.023c.02-.176.037-.327.05-.554.002.216-.02.393-.05.554Zm-9.365-.266.382.425-.333-.242-.05-.183Zm9.443-.886c.024-.175.044-.351.064-.525l-.005.397c.018.33-.045.462-.059.128Zm-.295-1.961-.11-.385.015-.516c.07.429.138.858.201 1.287l-.106-.387c.053.194-.055-.192 0 0Zm14.107-2.128c.496 1.058.71 2.116 1.017 3.234-.332-.99-.742-2.325-1.017-3.234Zm-2.853-6.928c-.164-.288-.334-.578-.447-.892a.736.736 0 0 1-.05-.206c-.005-.15.131-.107.24-.108.1.274.267.64-.044.093.102.37.204.739.303 1.111l-.002.002Zm-2.616 2.086a25.703 25.703 0 0 0-.686-1.405c.14.23.277.46.413.694-.113-.394-.213-.664-.463-1.205.588 1.005.997 2.043.735 1.914l.001.001Zm-1.175-2.622c-.177-.17-.29-.343-.309-.598.061.225.185.407.31.598-.032-.03-.057-.084 0 0Zm.44.707a11.99 11.99 0 0 0-.441-.705c.203.201.32.454.441.705-.031-.063-.141-.243 0 0Zm2.49 5.41-.47-.934c.044-.273-.605-1.115-.647-1.565.388.825.751 1.663 1.117 2.5Zm-6.549-5.453a.974.974 0 0 1-.149-.068c.049.019.098.044.15.068Z"/><path fill="#3758F9" d="M86.347 40.212c.242.07-1.135-.92.538.155.57.53 1.197 1.006 1.794 1.51.633.538 1.248 1.093 1.863 1.646l-.324-.107c-.637-.574-1.238-1.177-1.876-1.747-.601-.537-1.23-1.094-1.995-1.457.515.245.242.07 0 0Zm-2.769-1.142c.257.13.541.174.834.238.133.029.257.07.374.126.052.025.329.145.31.211.002 0-.463-.142-.506-.153a9.559 9.559 0 0 0-.674-.252c-.08-.026-.437-.078-.459-.155-.004-.02.124-.015.121-.015.273.139-.218-.003 0 0Zm-4.785 4.679c.004.375.022.748-.004 1.127-.02.304-.111.602-.116.907a6.15 6.15 0 0 1-.107-1.447c.008-.11-.007-.328.08-.43.038-.044.106.34.108.362-.028-.535.017-1.298.039-.517-.021-.78.008.81 0 0v-.002Zm-.292 9.034c-.186-.256-.37-.513-.552-.772l.33.29c.072.161.147.323.222.482Zm-8.185-8.067c.46.382.915.766 1.367 1.154l-.523-.309-.844-.845Zm-1.214-.768c-.314-.242-.63-.482-.63-.482l.48.302c.633.441.36.343.773.672 0 0-.313-.245-.623-.492.31.247-.314-.242 0 0Zm-2.264-1.678.56.448a131.38 131.38 0 0 0-1.515-1.123c.162.125.277.178.387.23l.568.444c.28.225-.285-.221 0 0Z"/></svg>