<svg xmlns="http://www.w3.org/2000/svg" width="50" height="50" fill="none"><rect width="50" height="50" fill="#fff" rx="25"/><path fill="url(#a)" d="M25 6.818c-4.937 0-5.557.021-7.496.11-1.936.088-3.257.395-4.413.844a8.902 8.902 0 0 0-3.22 2.097 8.925 8.925 0 0 0-2.099 3.22c-.45 1.157-.757 2.479-.845 4.413-.086 1.94-.109 2.56-.109 7.498 0 4.938.022 5.555.11 7.495.089 1.935.395 3.257.845 4.413a8.909 8.909 0 0 0 2.096 3.22 8.904 8.904 0 0 0 3.22 2.099c1.157.45 2.478.756 4.414.845 1.939.088 2.558.11 7.495.11 4.939 0 5.556-.022 7.496-.11 1.935-.089 3.258-.395 4.415-.845a8.896 8.896 0 0 0 3.218-2.098 8.926 8.926 0 0 0 2.099-3.221c.447-1.156.753-2.478.844-4.413.087-1.94.11-2.557.11-7.495 0-4.938-.023-5.558-.11-7.497-.09-1.936-.397-3.257-.844-4.413a8.924 8.924 0 0 0-2.099-3.221 8.886 8.886 0 0 0-3.22-2.097c-1.158-.45-2.48-.756-4.416-.844-1.94-.089-2.557-.11-7.496-.11h.006Zm-1.63 3.276H25c4.855 0 5.43.018 7.347.105 1.773.081 2.735.377 3.376.626a5.64 5.64 0 0 1 2.09 1.36 5.642 5.642 0 0 1 1.36 2.09c.249.641.545 1.603.626 3.376.087 1.916.106 2.492.106 7.345 0 4.852-.019 5.428-.106 7.344-.08 1.773-.377 2.735-.626 3.375a5.622 5.622 0 0 1-1.36 2.089 5.623 5.623 0 0 1-2.09 1.36c-.64.25-1.603.545-3.376.626-1.916.087-2.492.106-7.346.106-4.855 0-5.43-.019-7.347-.106-1.773-.082-2.735-.378-3.376-.627a5.632 5.632 0 0 1-2.09-1.36 5.636 5.636 0 0 1-1.361-2.09c-.25-.64-.546-1.602-.627-3.374-.087-1.917-.104-2.493-.104-7.348s.017-5.428.104-7.345c.082-1.772.378-2.735.627-3.376a5.633 5.633 0 0 1 1.36-2.09 5.642 5.642 0 0 1 2.091-1.361c.64-.25 1.603-.545 3.376-.627 1.677-.076 2.327-.098 5.716-.102v.004Zm11.336 3.02a2.182 2.182 0 1 0 0 4.364 2.182 2.182 0 0 0 0-4.365ZM25 15.662a9.337 9.337 0 0 0 0 18.672A9.334 9.334 0 0 0 34.336 25 9.336 9.336 0 0 0 25 15.663Zm0 3.276a6.06 6.06 0 1 1 0 12.121 6.06 6.06 0 0 1 0-12.12Z"/><path fill="url(#b)" d="M25 6.818c-4.937 0-5.557.021-7.496.11-1.936.088-3.257.395-4.413.844a8.902 8.902 0 0 0-3.22 2.097 8.925 8.925 0 0 0-2.099 3.22c-.45 1.157-.757 2.479-.845 4.413-.086 1.94-.109 2.56-.109 7.498 0 4.938.022 5.555.11 7.495.089 1.935.395 3.257.845 4.413a8.909 8.909 0 0 0 2.096 3.22 8.904 8.904 0 0 0 3.22 2.099c1.157.45 2.478.756 4.414.845 1.939.088 2.558.11 7.495.11 4.939 0 5.556-.022 7.496-.11 1.935-.089 3.258-.395 4.415-.845a8.896 8.896 0 0 0 3.218-2.098 8.926 8.926 0 0 0 2.099-3.221c.447-1.156.753-2.478.844-4.413.087-1.94.11-2.557.11-7.495 0-4.938-.023-5.558-.11-7.497-.09-1.936-.397-3.257-.844-4.413a8.924 8.924 0 0 0-2.099-3.221 8.886 8.886 0 0 0-3.22-2.097c-1.158-.45-2.48-.756-4.416-.844-1.94-.089-2.557-.11-7.496-.11h.006Zm-1.63 3.276H25c4.855 0 5.43.018 7.347.105 1.773.081 2.735.377 3.376.626a5.64 5.64 0 0 1 2.09 1.36 5.642 5.642 0 0 1 1.36 2.09c.249.641.545 1.603.626 3.376.087 1.916.106 2.492.106 7.345 0 4.852-.019 5.428-.106 7.344-.08 1.773-.377 2.735-.626 3.375a5.622 5.622 0 0 1-1.36 2.089 5.623 5.623 0 0 1-2.09 1.36c-.64.25-1.603.545-3.376.626-1.916.087-2.492.106-7.346.106-4.855 0-5.43-.019-7.347-.106-1.773-.082-2.735-.378-3.376-.627a5.632 5.632 0 0 1-2.09-1.36 5.636 5.636 0 0 1-1.361-2.09c-.25-.64-.546-1.602-.627-3.374-.087-1.917-.104-2.493-.104-7.348s.017-5.428.104-7.345c.082-1.772.378-2.735.627-3.376a5.633 5.633 0 0 1 1.36-2.09 5.642 5.642 0 0 1 2.091-1.361c.64-.25 1.603-.545 3.376-.627 1.677-.076 2.327-.098 5.716-.102v.004Zm11.336 3.02a2.182 2.182 0 1 0 0 4.364 2.182 2.182 0 0 0 0-4.365ZM25 15.662a9.337 9.337 0 0 0 0 18.672A9.334 9.334 0 0 0 34.336 25 9.336 9.336 0 0 0 25 15.663Zm0 3.276a6.06 6.06 0 1 1 0 12.121 6.06 6.06 0 0 1 0-12.12Z"/><defs><radialGradient id="a" cx="0" cy="0" r="1" gradientTransform="matrix(0 -36.0391 33.5178 0 16.477 45.982)" gradientUnits="userSpaceOnUse"><stop stop-color="#FD5"/><stop offset=".1" stop-color="#FD5"/><stop offset=".5" stop-color="#FF543E"/><stop offset="1" stop-color="#C837AB"/></radialGradient><radialGradient id="b" cx="0" cy="0" r="1" gradientTransform="rotate(78.681 -5.393 5.162) scale(16.1096 66.4019)" gradientUnits="userSpaceOnUse"><stop stop-color="#3771C8"/><stop offset=".128" stop-color="#3771C8"/><stop offset="1" stop-color="#60F" stop-opacity="0"/></radialGradient></defs></svg>