<svg xmlns="http://www.w3.org/2000/svg" width="60" height="60" fill="none"><rect width="60" height="60" fill="#fff" rx="30"/><circle cx="30" cy="30" r="22.5" fill="#1ED760"/><path fill="#fff" d="M42.023 27.58c-6.792-4.059-17.996-4.432-24.48-2.452a1.968 1.968 0 0 1-2.458-1.321 1.986 1.986 0 0 1 1.314-2.474c7.443-2.274 19.817-1.834 27.636 2.836a1.99 1.99 0 0 1 .689 2.718 1.963 1.963 0 0 1-2.7.693Zm-.222 6.012a1.638 1.638 0 0 1-2.26.544c-5.663-3.502-14.297-4.517-20.997-2.47a1.643 1.643 0 0 1-2.05-1.102 1.657 1.657 0 0 1 1.095-2.062c7.654-2.336 17.168-1.205 23.671 2.817a1.66 1.66 0 0 1 .54 2.273Zm-2.579 5.773a1.308 1.308 0 0 1-1.805.44c-4.949-3.043-11.177-3.73-18.512-2.044a1.313 1.313 0 0 1-1.572-.994 1.32 1.32 0 0 1 .988-1.582c8.026-1.847 14.912-1.052 20.466 2.363.619.38.814 1.194.435 1.817Z"/></svg>