<svg xmlns="http://www.w3.org/2000/svg" width="50" height="50" fill="none"><rect width="50" height="50" fill="#fff" rx="25"/><path fill="url(#a)" d="M21.875 43.541C13.021 41.98 6.25 34.271 6.25 25 6.25 14.687 14.688 6.25 25 6.25c10.313 0 18.75 8.437 18.75 18.75 0 9.27-6.77 16.979-15.625 18.541l-1.042-.833h-4.166l-1.042.833Z"/><path fill="#fff" d="m32.292 30.208.833-5.209h-5v-3.645c0-1.459.52-2.605 2.813-2.605h2.395v-4.791c-1.354-.209-2.812-.417-4.166-.417-4.271 0-7.292 2.604-7.292 7.292v4.166h-4.688v5.209h4.688v13.229c1.042.208 2.083.312 3.125.312 1.042 0 2.083-.104 3.125-.312v-13.23h4.167Z"/><defs><linearGradient id="a" x1="25" x2="25" y1="42.452" y2="6.25" gradientUnits="userSpaceOnUse"><stop stop-color="#0062E0"/><stop offset="1" stop-color="#19AFFF"/></linearGradient></defs></svg>