<svg xmlns="http://www.w3.org/2000/svg" width="50" height="50" fill="none"><rect width="50" height="50" fill="#fff" rx="25"/><path fill="#111928" d="M27.67 25c0 6.534-5.262 11.831-11.752 11.831-6.49 0-11.751-5.296-11.751-11.832 0-6.536 5.26-11.831 11.75-11.831s11.753 5.297 11.753 11.83Zm12.89 0c0 6.15-2.63 11.137-5.875 11.137s-5.876-4.988-5.876-11.138c0-6.15 2.63-11.138 5.876-11.138 3.245 0 5.875 4.988 5.875 11.138Zm5.273 0c0 5.51-.925 9.978-2.066 9.978-1.142 0-2.067-4.47-2.067-9.979 0-5.51.925-9.979 2.067-9.979 1.142 0 2.066 4.468 2.066 9.98Z"/></svg>