<svg xmlns="http://www.w3.org/2000/svg" width="60" height="60" fill="none"><rect width="60" height="60" fill="#fff" rx="30"/><path fill="#BB0F23" d="M33.07 7.71a22.503 22.503 0 0 0-12.076 42.914 17.447 17.447 0 0 1 .366-5.159c.417-1.887 2.916-12.29 2.916-12.29a8.412 8.412 0 0 1-.729-3.547c0-3.341 1.928-5.834 4.326-5.834a3.001 3.001 0 0 1 3.02 3.393c0 2.025-1.301 5.089-1.98 7.964a3.473 3.473 0 0 0 3.543 4.326c4.27 0 7.131-5.47 7.131-11.926 0-4.949-3.278-8.656-9.32-8.656a10.678 10.678 0 0 0-11.09 10.785 6.659 6.659 0 0 0 1.457 4.431 1.08 1.08 0 0 1 .364 1.247 83.67 83.67 0 0 1-.468 1.763.797.797 0 0 1-1.147.572c-3.113-1.247-4.58-4.673-4.58-8.585 0-6.405 5.363-14.071 16.094-14.071 8.54 0 14.217 6.247 14.217 12.928 0 8.794-4.897 15.406-12.134 15.406a6.436 6.436 0 0 1-5.52-2.803s-1.301 5.21-1.558 6.195a18.055 18.055 0 0 1-2.292 4.794 21.74 21.74 0 0 0 6.403.936A22.47 22.47 0 0 0 52.5 29.99 22.501 22.501 0 0 0 33.074 7.712l-.004-.002Z"/></svg>